<svg version="1.1" id="Layer_1" xmlns="http://www.w3.org/2000/svg" xmlns:xlink="http://www.w3.org/1999/xlink" x="0px" y="0px"
	 width="100%" viewBox="0 0 2000 1500" enable-background="new 0 0 2000 1500" xml:space="preserve">
<path fill="#2A2D32" opacity="1.000000" stroke="none" 
	d="
M1220.000000,1501.000000 
	C813.333435,1501.000000 407.166901,1501.000000 1.000182,1501.000000 
	C1.000000,1428.333496 1.000000,1355.666992 1.000000,1283.000488 
	C1.000000,855.667236 1.000000,428.334045 1.000000,1.000405 
	C1.333063,1.000000 1.666126,1.000000 1.999189,1.000000 
	C668.332275,1.000000 1334.665405,1.000000 2000.998901,1.000000 
	C2000.999268,500.999390 2000.999268,1000.998779 2000.999634,1500.999023 
	C1740.833374,1501.000000 1480.666626,1501.000000 1220.000000,1501.000000 
M542.721313,538.661743 
	C541.147644,523.420715 539.656616,508.170288 537.939453,492.945435 
	C537.533936,489.350525 536.367188,485.841431 535.550659,482.292877 
	C534.963074,482.322845 534.375488,482.352844 533.787964,482.382812 
	C533.167480,484.908966 532.243774,487.403107 531.972900,489.966217 
	C528.944641,518.617126 525.940796,547.270996 523.081787,575.939270 
	C519.561279,611.240540 516.296204,646.567627 512.635132,681.854004 
	C512.023071,687.753662 509.961151,693.502869 508.335724,700.297607 
	C497.268890,691.222961 487.494568,683.210754 477.723083,675.195007 
	C451.702057,653.849548 425.700287,632.480591 399.638092,611.185547 
	C396.555115,608.666443 393.143738,606.549377 389.884583,604.245911 
	C389.342529,604.827148 388.800507,605.408386 388.258453,605.989624 
	C403.414307,626.081299 419.918304,645.120667 435.791687,664.648743 
	C451.691925,684.209778 467.735779,703.653992 484.451996,724.046387 
	C478.613922,725.584412 474.051971,727.407349 469.346863,727.922546 
	C443.519012,730.750488 417.660217,733.299561 391.804230,735.865906 
	C353.684998,739.649414 315.555481,743.329285 277.442383,747.172913 
	C273.796417,747.540649 270.235809,748.754272 266.635590,749.575195 
	C266.643616,750.124878 266.651642,750.674561 266.659698,751.224304 
	C268.797943,751.843140 270.900421,752.797791 273.079834,753.029907 
	C301.559021,756.062378 330.043182,759.051575 358.537964,761.933960 
	C395.490967,765.671875 432.463776,769.217529 469.402649,773.088440 
	C474.169403,773.588013 478.784332,775.536865 484.381317,777.062988 
	C467.590424,797.538086 451.597046,816.914551 435.745422,836.406250 
	C419.881195,855.913269 403.402252,874.945190 388.250488,895.010986 
	C388.867706,895.624084 389.484924,896.237244 390.102142,896.850403 
	C410.370544,881.974243 429.261017,865.323242 448.797852,849.512451 
	C468.398346,833.650146 487.803101,817.545898 507.848267,801.092468 
	C509.146698,804.794983 510.585297,807.527344 511.025726,810.412170 
	C512.305115,818.792297 513.353088,827.216797 514.192993,835.653625 
	C519.555054,889.517151 524.799072,943.392395 530.190247,997.252991 
	C530.908020,1004.424316 532.238342,1011.534302 533.284973,1018.672729 
	C534.026794,1018.697571 534.768677,1018.722412 535.510498,1018.747253 
	C536.313049,1015.485352 537.512878,1012.264709 537.856262,1008.955261 
	C540.984863,978.805054 543.985779,948.641541 546.981201,918.477722 
	C550.371765,884.334778 553.615723,850.176819 557.198608,816.054260 
	C557.711609,811.168518 559.769958,806.444946 561.332458,800.862610 
	C580.513794,816.597168 598.533447,831.389832 616.565552,846.167358 
	C634.993347,861.269226 653.409363,876.385620 671.896606,891.414368 
	C674.345703,893.405273 677.184204,894.917114 679.842407,896.650757 
	C680.348572,896.101624 680.854797,895.552429 681.360962,895.003235 
	C650.040649,855.496887 617.383362,817.051514 585.096008,776.916077 
	C590.922974,775.407349 595.649231,773.657837 600.520203,773.029053 
	C611.582336,771.601013 622.715393,770.721985 633.819946,769.623474 
	C669.621094,766.081970 705.427734,762.594788 741.221436,758.980103 
	C759.774231,757.106445 778.309021,755.049622 796.838196,752.954468 
	C798.902466,752.721069 800.876892,751.693237 802.893005,751.033813 
	C802.831421,750.587769 802.769836,750.141663 802.708191,749.695618 
	C800.687805,749.117859 798.700806,748.236206 796.641724,748.009521 
	C776.781616,745.822754 756.919617,743.642700 737.038391,741.659424 
	C693.783447,737.344543 650.515076,733.164673 607.256897,728.881531 
	C599.916321,728.154785 592.516907,727.484375 585.697632,723.198730 
	C589.448792,718.609009 592.909790,714.361572 596.384216,710.125183 
	C622.165405,678.690674 647.969360,647.274658 673.701904,615.800293 
	C676.341125,612.572083 678.557861,608.998474 680.970642,605.585144 
	C680.402100,605.025208 679.833557,604.465271 679.265015,603.905334 
	C639.691223,635.096924 601.357788,667.855835 561.027954,700.216858 
	C559.488403,693.823547 557.688782,688.614929 557.051208,683.267639 
	C555.316162,668.716736 554.069092,654.107483 552.635132,639.520752 
	C549.360046,606.204651 546.088806,572.888123 542.721313,538.661743 
M952.995728,680.498047 
	C952.995728,686.224365 952.995728,691.950745 952.995728,698.014709 
	C952.127197,697.535706 951.787537,697.458252 951.629822,697.245850 
	C937.547668,678.271423 923.499390,659.271851 909.368225,640.334045 
	C908.359863,638.982666 906.804199,637.204224 905.412231,637.119751 
	C899.507324,636.761414 893.568176,636.967712 887.627991,636.967712 
	C887.627991,669.817017 887.627991,702.021973 887.627991,734.451538 
	C894.242310,734.451538 900.502930,734.451538 907.508362,734.451538 
	C907.508362,714.133606 907.508362,693.989685 907.508362,672.356323 
	C908.909424,674.059998 909.305664,674.498413 909.654114,674.971985 
	C923.558533,693.868896 937.440125,712.782715 951.401733,731.637268 
	C952.316406,732.872437 953.799316,734.447144 955.088379,734.514526 
	C960.990540,734.822815 966.917786,734.650024 972.754272,734.650024 
	C972.754272,701.688782 972.754272,669.462158 972.754272,637.277344 
	C966.038696,637.277344 959.641174,637.277344 952.995728,637.277344 
	C952.995728,651.563049 952.995728,665.530945 952.995728,680.498047 
M1430.131348,686.304932 
	C1433.055908,677.502258 1438.343384,673.509705 1445.597900,674.626160 
	C1452.309814,675.659119 1454.642212,679.553955 1454.671387,689.940918 
	C1454.700806,700.436768 1454.677979,710.932800 1454.678101,721.428711 
	C1454.678101,725.720398 1454.678101,730.012085 1454.678101,734.328125 
	C1461.522339,734.328125 1467.738159,734.328125 1474.383301,734.328125 
	C1474.383301,726.510132 1474.324585,719.038147 1474.398926,711.567566 
	C1474.480103,703.412598 1474.231079,695.217957 1474.963745,687.116333 
	C1475.686768,679.120850 1481.946411,673.991516 1489.023560,674.455566 
	C1496.174072,674.924438 1499.158325,678.797424 1499.220581,688.167419 
	C1499.311523,701.828186 1499.238037,715.489990 1499.258301,729.151367 
	C1499.260864,730.899048 1499.406006,732.646484 1499.481445,734.316040 
	C1506.343140,734.316040 1512.581787,734.316040 1518.922241,734.316040 
	C1518.922241,715.636902 1519.272705,697.312622 1518.767212,679.012024 
	C1518.531250,670.464783 1514.785156,663.195679 1506.027466,659.799500 
	C1494.675171,655.397156 1481.670654,658.751038 1473.959839,668.122559 
	C1473.363892,668.846741 1473.256348,669.972717 1472.921875,670.911926 
	C1467.207886,660.886536 1459.578003,657.842590 1450.211304,658.015564 
	C1440.919922,658.187134 1433.955811,662.805725 1428.086670,670.531067 
	C1427.338501,666.436096 1426.751221,663.221680 1426.159302,659.981873 
	C1420.604126,659.981873 1415.477417,659.981873 1410.269287,659.981873 
	C1410.269287,684.870850 1410.269287,709.584229 1410.269287,734.353699 
	C1416.850586,734.353699 1423.094482,734.353699 1430.020386,734.353699 
	C1430.020386,718.411499 1430.020386,702.791931 1430.131348,686.304932 
M1176.721680,659.145142 
	C1174.354004,659.915894 1171.912720,660.513916 1169.631592,661.487366 
	C1160.091309,665.558655 1156.006104,672.132385 1156.960083,681.881836 
	C1163.170288,681.881836 1169.402832,681.881836 1175.588989,681.881836 
	C1176.983398,674.176086 1183.281860,671.063110 1193.135132,672.978394 
	C1199.697632,674.254028 1202.177490,679.672363 1200.284668,689.126038 
	C1198.054321,689.126038 1195.687988,688.805786 1193.438354,689.182617 
	C1184.630859,690.657715 1175.551392,691.419617 1167.153076,694.199097 
	C1156.278320,697.798035 1151.388794,708.062683 1153.376099,719.463379 
	C1155.148926,729.633484 1162.204956,735.266235 1173.996704,736.109070 
	C1184.896973,736.888184 1194.718018,734.573425 1202.393677,726.100037 
	C1208.075317,735.657288 1218.557251,739.086548 1228.072754,734.735779 
	C1229.022095,734.301697 1230.057007,732.914673 1230.127808,731.905090 
	C1230.377563,728.342224 1230.225098,724.751099 1230.225098,721.246826 
	C1220.880005,720.578796 1220.852539,720.549133 1220.848633,711.723450 
	C1220.844116,701.900391 1220.976196,692.074890 1220.800049,682.254883 
	C1220.588989,670.493835 1215.152588,662.517334 1203.714966,660.237244 
	C1195.253418,658.550476 1186.298584,659.338318 1176.721680,659.145142 
M1695.337524,658.065125 
	C1686.413574,657.750366 1677.666748,658.464661 1669.675903,662.947998 
	C1661.949463,667.283081 1658.698486,673.934937 1660.305176,681.930664 
	C1666.387695,681.930664 1672.489380,681.930664 1678.550171,681.930664 
	C1680.021362,674.191711 1686.178467,671.102600 1696.054321,672.962891 
	C1702.665283,674.208130 1705.075439,679.364258 1703.348145,689.122681 
	C1701.116089,689.122681 1698.755005,688.803833 1696.509766,689.178955 
	C1687.692749,690.652100 1678.602295,691.407288 1670.195190,694.187866 
	C1659.311279,697.787659 1654.450195,708.024597 1656.438232,719.470642 
	C1658.208984,729.665710 1665.238647,735.253601 1677.060547,736.119019 
	C1687.962402,736.917114 1697.725220,734.482544 1705.592285,725.967346 
	C1709.499878,735.117249 1716.657959,736.616394 1724.869873,736.034241 
	C1732.789917,735.472839 1733.250366,735.022583 1733.249390,727.302246 
	C1733.249146,725.324097 1733.249390,723.345886 1733.249390,721.413269 
	C1723.879883,720.172302 1723.880005,720.172302 1723.879517,710.572021 
	C1723.879028,701.572693 1723.922607,692.573059 1723.867310,683.574036 
	C1723.783203,669.899597 1717.078857,661.779114 1703.699097,659.136169 
	C1701.252563,658.652832 1698.753418,658.436462 1695.337524,658.065125 
M1042.730225,734.300842 
	C1054.198730,731.059509 1061.082764,723.361938 1064.017578,712.034363 
	C1066.566650,702.195618 1066.529541,692.277405 1064.086670,682.408997 
	C1060.930420,669.657654 1052.669067,661.915039 1039.988281,659.350220 
	C1034.351318,658.210083 1028.390503,657.907104 1022.637329,658.248291 
	C1004.668823,659.313904 993.940186,668.236023 990.500488,684.758179 
	C988.580017,693.983154 988.701965,703.336060 991.197693,712.460022 
	C994.573669,724.801758 1002.587769,733.091736 1015.280334,734.797974 
	C1024.013184,735.972046 1033.067017,734.758240 1042.730225,734.300842 
M1378.671387,659.803406 
	C1376.534180,659.803406 1374.397095,659.803406 1371.918457,659.803406 
	C1371.918457,673.696533 1371.954956,687.169495 1371.885498,700.641907 
	C1371.872681,703.115601 1371.723145,705.659546 1371.132080,708.046143 
	C1369.165894,715.985474 1362.307495,720.675354 1354.376587,719.757568 
	C1346.581055,718.855408 1343.689331,715.120178 1343.612305,705.295227 
	C1343.507935,691.972900 1343.582764,678.649109 1343.580688,665.325989 
	C1343.580444,663.581421 1343.580811,661.836853 1343.580811,660.092590 
	C1336.593994,660.092590 1330.348511,660.092590 1324.016479,660.092590 
	C1324.016479,678.673767 1323.684448,696.974670 1324.141968,715.255798 
	C1324.413452,726.102783 1330.668701,733.269531 1340.942261,735.443970 
	C1351.989502,737.782043 1362.122681,735.773804 1370.365112,727.364746 
	C1371.313843,726.396790 1372.368408,725.532532 1373.860718,724.178528 
	C1374.344116,727.388000 1374.510986,729.734253 1375.116577,731.961121 
	C1375.393921,732.981018 1376.497192,734.497192 1377.289795,734.537720 
	C1382.029175,734.779968 1386.787109,734.657776 1391.615479,734.657776 
	C1391.615479,709.348755 1391.615479,684.888062 1391.615479,659.803406 
	C1387.529053,659.803406 1383.574707,659.803406 1378.671387,659.803406 
M1622.761719,684.413147 
	C1622.761719,701.016602 1622.761719,717.620056 1622.761719,734.249268 
	C1629.882568,734.249268 1636.249390,734.249268 1642.722412,734.249268 
	C1642.722412,716.497131 1643.239746,699.160034 1642.579468,681.867920 
	C1641.896484,663.978271 1629.614624,655.163208 1611.927124,658.507324 
	C1604.244263,659.959778 1598.280640,664.006226 1593.030762,670.559326 
	C1592.267090,666.407776 1591.677124,663.200317 1591.086426,659.988770 
	C1585.517090,659.988770 1580.390015,659.988770 1575.250488,659.988770 
	C1575.250488,684.894104 1575.250488,709.612244 1575.250488,734.299805 
	C1581.850342,734.299805 1588.076904,734.299805 1594.684570,734.299805 
	C1594.684570,729.612915 1594.668335,725.306396 1594.687866,720.999939 
	C1594.736938,710.172485 1594.536743,699.334778 1594.950684,688.520935 
	C1595.245850,680.810547 1601.076782,675.294250 1608.704590,674.490784 
	C1616.091919,673.712708 1620.351807,676.507263 1622.761719,684.413147 
M1263.041870,647.521851 
	C1263.041870,644.086792 1263.041870,640.651672 1263.041870,637.243530 
	C1255.693115,637.243530 1248.956055,637.243530 1242.149048,637.243530 
	C1242.149048,669.751038 1242.149048,701.969177 1242.149048,734.348145 
	C1265.570435,734.348145 1288.741577,734.348145 1311.915771,734.348145 
	C1311.915771,728.249512 1311.915771,722.513794 1311.915771,716.323792 
	C1295.510864,716.323792 1279.449463,716.323792 1263.041870,716.323792 
	C1263.041870,693.412170 1263.041870,670.964783 1263.041870,647.521851 
M1120.277588,683.612000 
	C1117.180664,693.514343 1114.083740,703.416626 1110.713989,714.191284 
	C1110.052246,712.335022 1109.711304,711.444275 1109.415649,710.538818 
	C1104.266846,694.764465 1099.161377,678.975708 1093.908813,663.235962 
	C1093.473267,661.930969 1092.093994,660.028503 1091.076904,659.979187 
	C1084.831909,659.676453 1078.565063,659.827515 1071.844727,659.827515 
	C1079.421997,680.206909 1086.724121,699.941772 1094.110229,719.645142 
	C1095.961426,724.583008 1096.802002,731.294556 1100.438110,733.778137 
	C1104.109619,736.285767 1110.697266,734.308594 1115.966919,734.764160 
	C1119.733398,735.089783 1121.060425,733.404663 1122.242432,730.162720 
	C1128.723389,712.385986 1135.445679,694.697205 1142.080688,676.976562 
	C1144.147095,671.457458 1146.198975,665.932861 1148.482666,659.806885 
	C1142.463257,659.806885 1137.174683,659.969177 1131.903320,659.739502 
	C1129.204102,659.621887 1128.133911,660.739563 1127.368652,663.107361 
	C1125.225098,669.739380 1122.880615,676.306519 1120.277588,683.612000 
M963.391052,793.843262 
	C956.923645,797.230896 953.115845,802.805847 951.231628,809.599182 
	C948.610657,819.048828 948.464539,828.666504 950.497314,838.280396 
	C952.877319,849.535767 959.120789,857.603943 970.723755,859.700439 
	C976.808105,860.799805 983.401489,860.751770 989.507751,859.711853 
	C1002.066223,857.573120 1010.167297,847.069824 1008.550415,836.499756 
	C1005.131653,836.499756 1001.731079,836.499756 998.407410,836.499756 
	C996.006409,848.534973 988.368225,853.259094 975.343140,851.060120 
	C965.708984,849.433716 960.033325,840.212097 961.579712,828.118896 
	C977.421753,828.118896 993.332275,828.118896 1009.984741,828.118896 
	C1009.393433,822.161316 1009.345764,816.634277 1008.220764,811.335876 
	C1005.372742,797.922913 997.118164,790.597717 983.509216,790.357300 
	C977.038452,790.243103 970.528320,792.357178 963.391052,793.843262 
M1101.734131,768.004272 
	C1098.093872,767.164185 1094.453613,766.324036 1090.396851,765.387817 
	C1090.396851,797.512878 1090.396851,828.119446 1090.396851,859.002563 
	C1094.180908,859.002563 1097.777588,859.002563 1101.768799,859.002563 
	C1101.768799,856.593994 1101.761963,854.457703 1101.770020,852.321411 
	C1101.814453,840.491028 1101.577515,828.650513 1101.996704,816.833374 
	C1102.352783,806.794128 1110.546753,799.847351 1120.757935,800.139526 
	C1130.790283,800.426636 1134.152710,804.601990 1134.197998,816.833191 
	C1134.203613,818.332947 1134.198853,819.832703 1134.198853,821.332458 
	C1134.198853,833.800659 1134.198853,846.268799 1134.198853,858.996216 
	C1138.175415,858.996216 1141.771362,858.996216 1145.753906,858.996216 
	C1145.753906,853.076172 1145.821411,847.439697 1145.740112,841.805359 
	C1145.569336,829.985901 1145.684204,818.145691 1144.975708,806.356445 
	C1144.500488,798.447937 1139.736938,792.967102 1131.947021,791.201660 
	C1127.667603,790.231812 1122.760376,789.614929 1118.678345,790.764282 
	C1112.747192,792.434448 1107.305908,795.843811 1101.763062,798.460815 
	C1101.763062,789.221985 1101.763062,779.072388 1101.734131,768.004272 
M1044.064453,860.525452 
	C1046.719849,860.629761 1049.390137,860.967529 1052.028320,860.800110 
	C1067.736328,859.803406 1077.343628,849.408813 1076.298828,834.386780 
	C1072.924927,834.386780 1069.528564,834.386780 1065.978149,834.386780 
	C1065.734741,835.669434 1065.493286,836.796326 1065.309448,837.932617 
	C1063.969604,846.215942 1060.361572,850.191345 1053.361328,851.076355 
	C1043.381958,852.338135 1036.697510,849.265869 1033.685059,841.355591 
	C1030.018555,831.728149 1030.112793,821.750610 1032.821777,811.941040 
	C1035.436768,802.471497 1042.232666,798.600952 1052.823853,799.813110 
	C1060.953613,800.743652 1064.230469,804.821533 1065.139893,815.096497 
	C1065.180176,815.552612 1065.445435,815.988831 1065.633545,816.511169 
	C1069.274292,816.511169 1072.839966,816.511169 1076.381836,816.511169 
	C1077.188477,802.220886 1069.939941,792.651550 1056.162476,790.666565 
	C1036.845337,787.883545 1023.241577,795.291199 1020.633240,814.083191 
	C1019.424133,822.794495 1019.877441,832.089905 1021.513245,840.755066 
	C1023.649536,852.071899 1031.394775,858.875732 1044.064453,860.525452 
M921.393005,832.500549 
	C921.393005,815.755859 921.393005,799.011169 921.393005,781.727417 
	C931.868469,781.727417 941.768066,781.727417 951.720337,781.727417 
	C951.720337,777.928589 951.720337,774.677856 951.720337,771.270752 
	C927.428589,771.270752 903.392029,771.270752 879.383789,771.270752 
	C879.383789,774.903687 879.383789,778.263062 879.383789,782.108459 
	C889.501343,782.108459 899.223511,782.108459 909.256104,782.108459 
	C909.256104,808.007568 909.256104,833.409241 909.256104,858.846069 
	C913.476501,858.846069 917.357422,858.846069 921.392944,858.846069 
	C921.392944,850.136292 921.392944,841.818420 921.393005,832.500549 
M1556.676392,717.497559 
	C1556.676392,698.429565 1556.676392,679.361511 1556.676392,660.138306 
	C1549.785522,660.138306 1543.412842,660.138306 1537.251709,660.138306 
	C1537.251709,685.163574 1537.251709,709.831177 1537.251709,734.307129 
	C1543.885010,734.307129 1550.112549,734.307129 1556.676392,734.307129 
	C1556.676392,728.766174 1556.676392,723.631104 1556.676392,717.497559 
M1550.338135,648.858154 
	C1552.272217,648.858154 1554.206421,648.858154 1556.392700,648.858154 
	C1556.392700,642.933838 1556.392700,637.576965 1556.392700,632.071289 
	C1549.753174,632.071289 1543.405640,632.071289 1537.165894,632.071289 
	C1537.165894,637.819092 1537.165894,643.214233 1537.165894,648.858154 
	C1541.448120,648.858154 1545.415405,648.858154 1550.338135,648.858154 
z"/>
<path fill="#C7F11D" opacity="1.000000" stroke="none" 
	d="
M542.768677,539.116760 
	C546.088806,572.888123 549.360046,606.204651 552.635132,639.520752 
	C554.069092,654.107483 555.316162,668.716736 557.051208,683.267639 
	C557.688782,688.614929 559.488403,693.823547 561.027954,700.216858 
	C601.357788,667.855835 639.691223,635.096924 679.265015,603.905334 
	C679.833557,604.465271 680.402100,605.025208 680.970642,605.585144 
	C678.557861,608.998474 676.341125,612.572083 673.701904,615.800293 
	C647.969360,647.274658 622.165405,678.690674 596.384216,710.125183 
	C592.909790,714.361572 589.448792,718.609009 585.697632,723.198730 
	C592.516907,727.484375 599.916321,728.154785 607.256897,728.881531 
	C650.515076,733.164673 693.783447,737.344543 737.038391,741.659424 
	C756.919617,743.642700 776.781616,745.822754 796.641724,748.009521 
	C798.700806,748.236206 800.687805,749.117859 802.708191,749.695618 
	C802.769836,750.141663 802.831421,750.587769 802.893005,751.033813 
	C800.876892,751.693237 798.902466,752.721069 796.838196,752.954468 
	C778.309021,755.049622 759.774231,757.106445 741.221436,758.980103 
	C705.427734,762.594788 669.621094,766.081970 633.819946,769.623474 
	C622.715393,770.721985 611.582336,771.601013 600.520203,773.029053 
	C595.649231,773.657837 590.922974,775.407349 585.096008,776.916077 
	C617.383362,817.051514 650.040649,855.496887 681.360962,895.003235 
	C680.854797,895.552429 680.348572,896.101624 679.842407,896.650757 
	C677.184204,894.917114 674.345703,893.405273 671.896606,891.414368 
	C653.409363,876.385620 634.993347,861.269226 616.565552,846.167358 
	C598.533447,831.389832 580.513794,816.597168 561.332458,800.862610 
	C559.769958,806.444946 557.711609,811.168518 557.198608,816.054260 
	C553.615723,850.176819 550.371765,884.334778 546.981201,918.477722 
	C543.985779,948.641541 540.984863,978.805054 537.856262,1008.955261 
	C537.512878,1012.264709 536.313049,1015.485352 535.510498,1018.747253 
	C534.768677,1018.722412 534.026794,1018.697571 533.284973,1018.672729 
	C532.238342,1011.534302 530.908020,1004.424316 530.190247,997.252991 
	C524.799072,943.392395 519.555054,889.517151 514.192993,835.653625 
	C513.353088,827.216797 512.305115,818.792297 511.025726,810.412170 
	C510.585297,807.527344 509.146698,804.794983 507.848267,801.092468 
	C487.803101,817.545898 468.398346,833.650146 448.797852,849.512451 
	C429.261017,865.323242 410.370544,881.974243 390.102142,896.850403 
	C389.484924,896.237244 388.867706,895.624084 388.250488,895.010986 
	C403.402252,874.945190 419.881195,855.913269 435.745422,836.406250 
	C451.597046,816.914551 467.590424,797.538086 484.381317,777.062988 
	C478.784332,775.536865 474.169403,773.588013 469.402649,773.088440 
	C432.463776,769.217529 395.490967,765.671875 358.537964,761.933960 
	C330.043182,759.051575 301.559021,756.062378 273.079834,753.029907 
	C270.900421,752.797791 268.797943,751.843140 266.659698,751.224304 
	C266.651642,750.674561 266.643616,750.124878 266.635590,749.575195 
	C270.235809,748.754272 273.796417,747.540649 277.442383,747.172913 
	C315.555481,743.329285 353.684998,739.649414 391.804230,735.865906 
	C417.660217,733.299561 443.519012,730.750488 469.346863,727.922546 
	C474.051971,727.407349 478.613922,725.584412 484.451996,724.046387 
	C467.735779,703.653992 451.691925,684.209778 435.791687,664.648743 
	C419.918304,645.120667 403.414307,626.081299 388.258453,605.989624 
	C388.800507,605.408386 389.342529,604.827148 389.884583,604.245911 
	C393.143738,606.549377 396.555115,608.666443 399.638092,611.185547 
	C425.700287,632.480591 451.702057,653.849548 477.723083,675.195007 
	C487.494568,683.210754 497.268890,691.222961 508.335724,700.297607 
	C509.961151,693.502869 512.023071,687.753662 512.635132,681.854004 
	C516.296204,646.567627 519.561279,611.240540 523.081787,575.939270 
	C525.940796,547.270996 528.944641,518.617126 531.972900,489.966217 
	C532.243774,487.403107 533.167480,484.908966 533.787964,482.382812 
	C534.375488,482.352844 534.963074,482.322845 535.550659,482.292877 
	C536.367188,485.841431 537.533936,489.350525 537.939453,492.945435 
	C539.656616,508.170288 541.147644,523.420715 542.768677,539.116760 
z"/>
<path fill="#ECF4CF" opacity="1.000000" stroke="none" 
	d="
M952.995728,679.998474 
	C952.995728,665.530945 952.995728,651.563049 952.995728,637.277344 
	C959.641174,637.277344 966.038696,637.277344 972.754272,637.277344 
	C972.754272,669.462158 972.754272,701.688782 972.754272,734.650024 
	C966.917786,734.650024 960.990540,734.822815 955.088379,734.514526 
	C953.799316,734.447144 952.316406,732.872437 951.401733,731.637268 
	C937.440125,712.782715 923.558533,693.868896 909.654114,674.971985 
	C909.305664,674.498413 908.909424,674.059998 907.508362,672.356323 
	C907.508362,693.989685 907.508362,714.133606 907.508362,734.451538 
	C900.502930,734.451538 894.242310,734.451538 887.627991,734.451538 
	C887.627991,702.021973 887.627991,669.817017 887.627991,636.967712 
	C893.568176,636.967712 899.507324,636.761414 905.412231,637.119751 
	C906.804199,637.204224 908.359863,638.982666 909.368225,640.334045 
	C923.499390,659.271851 937.547668,678.271423 951.629822,697.245850 
	C951.787537,697.458252 952.127197,697.535706 952.995728,698.014709 
	C952.995728,691.950745 952.995728,686.224365 952.995728,679.998474 
z"/>
<path fill="#EBF3CF" opacity="1.000000" stroke="none" 
	d="
M1430.075928,686.738647 
	C1430.020386,702.791931 1430.020386,718.411499 1430.020386,734.353699 
	C1423.094482,734.353699 1416.850586,734.353699 1410.269287,734.353699 
	C1410.269287,709.584229 1410.269287,684.870850 1410.269287,659.981873 
	C1415.477417,659.981873 1420.604126,659.981873 1426.159302,659.981873 
	C1426.751221,663.221680 1427.338501,666.436096 1428.086670,670.531067 
	C1433.955811,662.805725 1440.919922,658.187134 1450.211304,658.015564 
	C1459.578003,657.842590 1467.207886,660.886536 1472.921875,670.911926 
	C1473.256348,669.972717 1473.363892,668.846741 1473.959839,668.122559 
	C1481.670654,658.751038 1494.675171,655.397156 1506.027466,659.799500 
	C1514.785156,663.195679 1518.531250,670.464783 1518.767212,679.012024 
	C1519.272705,697.312622 1518.922241,715.636902 1518.922241,734.316040 
	C1512.581787,734.316040 1506.343140,734.316040 1499.481445,734.316040 
	C1499.406006,732.646484 1499.260864,730.899048 1499.258301,729.151367 
	C1499.238037,715.489990 1499.311523,701.828186 1499.220581,688.167419 
	C1499.158325,678.797424 1496.174072,674.924438 1489.023560,674.455566 
	C1481.946411,673.991516 1475.686768,679.120850 1474.963745,687.116333 
	C1474.231079,695.217957 1474.480103,703.412598 1474.398926,711.567566 
	C1474.324585,719.038147 1474.383301,726.510132 1474.383301,734.328125 
	C1467.738159,734.328125 1461.522339,734.328125 1454.678101,734.328125 
	C1454.678101,730.012085 1454.678101,725.720398 1454.678101,721.428711 
	C1454.677979,710.932800 1454.700806,700.436768 1454.671387,689.940918 
	C1454.642212,679.553955 1452.309814,675.659119 1445.597900,674.626160 
	C1438.343384,673.509705 1433.055908,677.502258 1430.075928,686.738647 
z"/>
<path fill="#EBF3CF" opacity="1.000000" stroke="none" 
	d="
M1177.142578,659.084473 
	C1186.298584,659.338318 1195.253418,658.550476 1203.714966,660.237244 
	C1215.152588,662.517334 1220.588989,670.493835 1220.800049,682.254883 
	C1220.976196,692.074890 1220.844116,701.900391 1220.848633,711.723450 
	C1220.852539,720.549133 1220.880005,720.578796 1230.225098,721.246826 
	C1230.225098,724.751099 1230.377563,728.342224 1230.127808,731.905090 
	C1230.057007,732.914673 1229.022095,734.301697 1228.072754,734.735779 
	C1218.557251,739.086548 1208.075317,735.657288 1202.393677,726.100037 
	C1194.718018,734.573425 1184.896973,736.888184 1173.996704,736.109070 
	C1162.204956,735.266235 1155.148926,729.633484 1153.376099,719.463379 
	C1151.388794,708.062683 1156.278320,697.798035 1167.153076,694.199097 
	C1175.551392,691.419617 1184.630859,690.657715 1193.438354,689.182617 
	C1195.687988,688.805786 1198.054321,689.126038 1200.284668,689.126038 
	C1202.177490,679.672363 1199.697632,674.254028 1193.135132,672.978394 
	C1183.281860,671.063110 1176.983398,674.176086 1175.588989,681.881836 
	C1169.402832,681.881836 1163.170288,681.881836 1156.960083,681.881836 
	C1156.006104,672.132385 1160.091309,665.558655 1169.631592,661.487366 
	C1171.912720,660.513916 1174.354004,659.915894 1177.142578,659.084473 
M1174.220093,708.962219 
	C1172.371094,714.951050 1173.625000,718.848389 1178.500366,720.379211 
	C1184.707153,722.328003 1190.834961,721.684570 1195.867188,717.264343 
	C1200.606323,713.101624 1201.747681,707.595886 1200.515137,701.196228 
	C1196.438843,701.493286 1192.609863,701.555725 1188.850220,702.098450 
	C1183.586182,702.858398 1178.253174,703.704529 1174.220093,708.962219 
z"/>
<path fill="#EBF3CF" opacity="1.000000" stroke="none" 
	d="
M1695.808105,658.080994 
	C1698.753418,658.436462 1701.252563,658.652832 1703.699097,659.136169 
	C1717.078857,661.779114 1723.783203,669.899597 1723.867310,683.574036 
	C1723.922607,692.573059 1723.879028,701.572693 1723.879517,710.572021 
	C1723.880005,720.172302 1723.879883,720.172302 1733.249390,721.413269 
	C1733.249390,723.345886 1733.249146,725.324097 1733.249390,727.302246 
	C1733.250366,735.022583 1732.789917,735.472839 1724.869873,736.034241 
	C1716.657959,736.616394 1709.499878,735.117249 1705.592285,725.967346 
	C1697.725220,734.482544 1687.962402,736.917114 1677.060547,736.119019 
	C1665.238647,735.253601 1658.208984,729.665710 1656.438232,719.470642 
	C1654.450195,708.024597 1659.311279,697.787659 1670.195190,694.187866 
	C1678.602295,691.407288 1687.692749,690.652100 1696.509766,689.178955 
	C1698.755005,688.803833 1701.116089,689.122681 1703.348145,689.122681 
	C1705.075439,679.364258 1702.665283,674.208130 1696.054321,672.962891 
	C1686.178467,671.102600 1680.021362,674.191711 1678.550171,681.930664 
	C1672.489380,681.930664 1666.387695,681.930664 1660.305176,681.930664 
	C1658.698486,673.934937 1661.949463,667.283081 1669.675903,662.947998 
	C1677.666748,658.464661 1686.413574,657.750366 1695.808105,658.080994 
M1678.769409,718.852173 
	C1685.354126,722.820251 1691.927002,722.182617 1697.944092,717.979309 
	C1703.558105,714.057495 1704.585815,708.111511 1703.578491,700.311890 
	C1696.122681,701.861328 1688.844116,702.662048 1682.088745,704.984619 
	C1675.762451,707.159729 1674.748047,712.322632 1678.769409,718.852173 
z"/>
<path fill="#EBF3CF" opacity="1.000000" stroke="none" 
	d="
M1042.353760,734.456299 
	C1033.067017,734.758240 1024.013184,735.972046 1015.280334,734.797974 
	C1002.587769,733.091736 994.573669,724.801758 991.197693,712.460022 
	C988.701965,703.336060 988.580017,693.983154 990.500488,684.758179 
	C993.940186,668.236023 1004.668823,659.313904 1022.637329,658.248291 
	C1028.390503,657.907104 1034.351318,658.210083 1039.988281,659.350220 
	C1052.669067,661.915039 1060.930420,669.657654 1064.086670,682.408997 
	C1066.529541,692.277405 1066.566650,702.195618 1064.017578,712.034363 
	C1061.082764,723.361938 1054.198730,731.059509 1042.353760,734.456299 
M1009.848999,703.214905 
	C1010.135376,705.014038 1010.271484,706.852844 1010.733582,708.605652 
	C1013.038574,717.350098 1018.346069,721.094177 1028.063721,720.951538 
	C1037.282471,720.816284 1043.282349,716.901306 1044.375854,708.129028 
	C1045.344116,700.362976 1045.130737,692.192627 1043.829102,684.472168 
	C1042.501953,676.601013 1036.220947,673.115479 1027.301636,673.199768 
	C1018.685791,673.281189 1012.886047,676.827454 1011.196655,684.494812 
	C1009.928894,690.248352 1010.191162,696.339050 1009.848999,703.214905 
z"/>
<path fill="#EAF2CE" opacity="1.000000" stroke="none" 
	d="
M1379.145874,659.803406 
	C1383.574707,659.803406 1387.529053,659.803406 1391.615479,659.803406 
	C1391.615479,684.888062 1391.615479,709.348755 1391.615479,734.657776 
	C1386.787109,734.657776 1382.029175,734.779968 1377.289795,734.537720 
	C1376.497192,734.497192 1375.393921,732.981018 1375.116577,731.961121 
	C1374.510986,729.734253 1374.344116,727.388000 1373.860718,724.178528 
	C1372.368408,725.532532 1371.313843,726.396790 1370.365112,727.364746 
	C1362.122681,735.773804 1351.989502,737.782043 1340.942261,735.443970 
	C1330.668701,733.269531 1324.413452,726.102783 1324.141968,715.255798 
	C1323.684448,696.974670 1324.016479,678.673767 1324.016479,660.092590 
	C1330.348511,660.092590 1336.593994,660.092590 1343.580811,660.092590 
	C1343.580811,661.836853 1343.580444,663.581421 1343.580688,665.325989 
	C1343.582764,678.649109 1343.507935,691.972900 1343.612305,705.295227 
	C1343.689331,715.120178 1346.581055,718.855408 1354.376587,719.757568 
	C1362.307495,720.675354 1369.165894,715.985474 1371.132080,708.046143 
	C1371.723145,705.659546 1371.872681,703.115601 1371.885498,700.641907 
	C1371.954956,687.169495 1371.918457,673.696533 1371.918457,659.803406 
	C1374.397095,659.803406 1376.534180,659.803406 1379.145874,659.803406 
z"/>
<path fill="#EAF2CE" opacity="1.000000" stroke="none" 
	d="
M1622.663330,683.998291 
	C1620.351807,676.507263 1616.091919,673.712708 1608.704590,674.490784 
	C1601.076782,675.294250 1595.245850,680.810547 1594.950684,688.520935 
	C1594.536743,699.334778 1594.736938,710.172485 1594.687866,720.999939 
	C1594.668335,725.306396 1594.684570,729.612915 1594.684570,734.299805 
	C1588.076904,734.299805 1581.850342,734.299805 1575.250488,734.299805 
	C1575.250488,709.612244 1575.250488,684.894104 1575.250488,659.988770 
	C1580.390015,659.988770 1585.517090,659.988770 1591.086426,659.988770 
	C1591.677124,663.200317 1592.267090,666.407776 1593.030762,670.559326 
	C1598.280640,664.006226 1604.244263,659.959778 1611.927124,658.507324 
	C1629.614624,655.163208 1641.896484,663.978271 1642.579468,681.867920 
	C1643.239746,699.160034 1642.722412,716.497131 1642.722412,734.249268 
	C1636.249390,734.249268 1629.882568,734.249268 1622.761719,734.249268 
	C1622.761719,717.620056 1622.761719,701.016602 1622.663330,683.998291 
z"/>
<path fill="#ECF4CF" opacity="1.000000" stroke="none" 
	d="
M1263.041870,648.019592 
	C1263.041870,670.964783 1263.041870,693.412170 1263.041870,716.323792 
	C1279.449463,716.323792 1295.510864,716.323792 1311.915771,716.323792 
	C1311.915771,722.513794 1311.915771,728.249512 1311.915771,734.348145 
	C1288.741577,734.348145 1265.570435,734.348145 1242.149048,734.348145 
	C1242.149048,701.969177 1242.149048,669.751038 1242.149048,637.243530 
	C1248.956055,637.243530 1255.693115,637.243530 1263.041870,637.243530 
	C1263.041870,640.651672 1263.041870,644.086792 1263.041870,648.019592 
z"/>
<path fill="#EBF3CF" opacity="1.000000" stroke="none" 
	d="
M1120.446533,683.255615 
	C1122.880615,676.306519 1125.225098,669.739380 1127.368652,663.107361 
	C1128.133911,660.739563 1129.204102,659.621887 1131.903320,659.739502 
	C1137.174683,659.969177 1142.463257,659.806885 1148.482666,659.806885 
	C1146.198975,665.932861 1144.147095,671.457458 1142.080688,676.976562 
	C1135.445679,694.697205 1128.723389,712.385986 1122.242432,730.162720 
	C1121.060425,733.404663 1119.733398,735.089783 1115.966919,734.764160 
	C1110.697266,734.308594 1104.109619,736.285767 1100.438110,733.778137 
	C1096.802002,731.294556 1095.961426,724.583008 1094.110229,719.645142 
	C1086.724121,699.941772 1079.421997,680.206909 1071.844727,659.827515 
	C1078.565063,659.827515 1084.831909,659.676453 1091.076904,659.979187 
	C1092.093994,660.028503 1093.473267,661.930969 1093.908813,663.235962 
	C1099.161377,678.975708 1104.266846,694.764465 1109.415649,710.538818 
	C1109.711304,711.444275 1110.052246,712.335022 1110.713989,714.191284 
	C1114.083740,703.416626 1117.180664,693.514343 1120.446533,683.255615 
z"/>
<path fill="#E9F1CD" opacity="1.000000" stroke="none" 
	d="
M963.713501,793.652527 
	C970.528320,792.357178 977.038452,790.243103 983.509216,790.357300 
	C997.118164,790.597717 1005.372742,797.922913 1008.220764,811.335876 
	C1009.345764,816.634277 1009.393433,822.161316 1009.984741,828.118896 
	C993.332275,828.118896 977.421753,828.118896 961.579712,828.118896 
	C960.033325,840.212097 965.708984,849.433716 975.343140,851.060120 
	C988.368225,853.259094 996.006409,848.534973 998.407410,836.499756 
	C1001.731079,836.499756 1005.131653,836.499756 1008.550415,836.499756 
	C1010.167297,847.069824 1002.066223,857.573120 989.507751,859.711853 
	C983.401489,860.751770 976.808105,860.799805 970.723755,859.700439 
	C959.120789,857.603943 952.877319,849.535767 950.497314,838.280396 
	C948.464539,828.666504 948.610657,819.048828 951.231628,809.599182 
	C953.115845,802.805847 956.923645,797.230896 963.713501,793.652527 
M961.833679,815.309937 
	C961.675598,816.704468 961.517578,818.098999 961.346252,819.610779 
	C973.708374,819.610779 985.602600,819.610779 997.474548,819.610779 
	C998.221558,809.968323 994.064697,802.206177 986.717041,800.302612 
	C976.531677,797.663818 964.384888,799.935120 961.833679,815.309937 
z"/>
<path fill="#E5ECC9" opacity="1.000000" stroke="none" 
	d="
M1101.748535,768.463501 
	C1101.763062,779.072388 1101.763062,789.221985 1101.763062,798.460815 
	C1107.305908,795.843811 1112.747192,792.434448 1118.678345,790.764282 
	C1122.760376,789.614929 1127.667603,790.231812 1131.947021,791.201660 
	C1139.736938,792.967102 1144.500488,798.447937 1144.975708,806.356445 
	C1145.684204,818.145691 1145.569336,829.985901 1145.740112,841.805359 
	C1145.821411,847.439697 1145.753906,853.076172 1145.753906,858.996216 
	C1141.771362,858.996216 1138.175415,858.996216 1134.198853,858.996216 
	C1134.198853,846.268799 1134.198853,833.800659 1134.198853,821.332458 
	C1134.198853,819.832703 1134.203613,818.332947 1134.197998,816.833191 
	C1134.152710,804.601990 1130.790283,800.426636 1120.757935,800.139526 
	C1110.546753,799.847351 1102.352783,806.794128 1101.996704,816.833374 
	C1101.577515,828.650513 1101.814453,840.491028 1101.770020,852.321411 
	C1101.761963,854.457703 1101.768799,856.593994 1101.768799,859.002563 
	C1097.777588,859.002563 1094.180908,859.002563 1090.396851,859.002563 
	C1090.396851,828.119446 1090.396851,797.512878 1090.396851,765.387817 
	C1094.453613,766.324036 1098.093872,767.164185 1101.748535,768.463501 
z"/>
<path fill="#E8F0CC" opacity="1.000000" stroke="none" 
	d="
M1043.636719,860.426941 
	C1031.394775,858.875732 1023.649536,852.071899 1021.513245,840.755066 
	C1019.877441,832.089905 1019.424133,822.794495 1020.633240,814.083191 
	C1023.241577,795.291199 1036.845337,787.883545 1056.162476,790.666565 
	C1069.939941,792.651550 1077.188477,802.220886 1076.381836,816.511169 
	C1072.839966,816.511169 1069.274292,816.511169 1065.633545,816.511169 
	C1065.445435,815.988831 1065.180176,815.552612 1065.139893,815.096497 
	C1064.230469,804.821533 1060.953613,800.743652 1052.823853,799.813110 
	C1042.232666,798.600952 1035.436768,802.471497 1032.821777,811.941040 
	C1030.112793,821.750610 1030.018555,831.728149 1033.685059,841.355591 
	C1036.697510,849.265869 1043.381958,852.338135 1053.361328,851.076355 
	C1060.361572,850.191345 1063.969604,846.215942 1065.309448,837.932617 
	C1065.493286,836.796326 1065.734741,835.669434 1065.978149,834.386780 
	C1069.528564,834.386780 1072.924927,834.386780 1076.298828,834.386780 
	C1077.343628,849.408813 1067.736328,859.803406 1052.028320,860.800110 
	C1049.390137,860.967529 1046.719849,860.629761 1043.636719,860.426941 
z"/>
<path fill="#EAF2CE" opacity="1.000000" stroke="none" 
	d="
M921.392944,833.000610 
	C921.392944,841.818420 921.392944,850.136292 921.392944,858.846069 
	C917.357422,858.846069 913.476501,858.846069 909.256104,858.846069 
	C909.256104,833.409241 909.256104,808.007568 909.256104,782.108459 
	C899.223511,782.108459 889.501343,782.108459 879.383789,782.108459 
	C879.383789,778.263062 879.383789,774.903687 879.383789,771.270752 
	C903.392029,771.270752 927.428589,771.270752 951.720337,771.270752 
	C951.720337,774.677856 951.720337,777.928589 951.720337,781.727417 
	C941.768066,781.727417 931.868469,781.727417 921.393005,781.727417 
	C921.393005,799.011169 921.393005,815.755859 921.392944,833.000610 
z"/>
<path fill="#E9F1CD" opacity="1.000000" stroke="none" 
	d="
M1556.676392,717.996765 
	C1556.676392,723.631104 1556.676392,728.766174 1556.676392,734.307129 
	C1550.112549,734.307129 1543.885010,734.307129 1537.251709,734.307129 
	C1537.251709,709.831177 1537.251709,685.163574 1537.251709,660.138306 
	C1543.412842,660.138306 1549.785522,660.138306 1556.676392,660.138306 
	C1556.676392,679.361511 1556.676392,698.429565 1556.676392,717.996765 
z"/>
<path fill="#E8F0CC" opacity="1.000000" stroke="none" 
	d="
M1549.860352,648.858154 
	C1545.415405,648.858154 1541.448120,648.858154 1537.165894,648.858154 
	C1537.165894,643.214233 1537.165894,637.819092 1537.165894,632.071289 
	C1543.405640,632.071289 1549.753174,632.071289 1556.392700,632.071289 
	C1556.392700,637.576965 1556.392700,642.933838 1556.392700,648.858154 
	C1554.206421,648.858154 1552.272217,648.858154 1549.860352,648.858154 
z"/>
<path fill="#2C2F34" opacity="1.000000" stroke="none" 
	d="
M1174.434082,708.652466 
	C1178.253174,703.704529 1183.586182,702.858398 1188.850220,702.098450 
	C1192.609863,701.555725 1196.438843,701.493286 1200.515137,701.196228 
	C1201.747681,707.595886 1200.606323,713.101624 1195.867188,717.264343 
	C1190.834961,721.684570 1184.707153,722.328003 1178.500366,720.379211 
	C1173.625000,718.848389 1172.371094,714.951050 1174.434082,708.652466 
z"/>
<path fill="#2C2F34" opacity="1.000000" stroke="none" 
	d="
M1678.485840,718.582336 
	C1674.748047,712.322632 1675.762451,707.159729 1682.088745,704.984619 
	C1688.844116,702.662048 1696.122681,701.861328 1703.578491,700.311890 
	C1704.585815,708.111511 1703.558105,714.057495 1697.944092,717.979309 
	C1691.927002,722.182617 1685.354126,722.820251 1678.485840,718.582336 
z"/>
<path fill="#2C2F34" opacity="1.000000" stroke="none" 
	d="
M1009.810669,702.747253 
	C1010.191162,696.339050 1009.928894,690.248352 1011.196655,684.494812 
	C1012.886047,676.827454 1018.685791,673.281189 1027.301636,673.199768 
	C1036.220947,673.115479 1042.501953,676.601013 1043.829102,684.472168 
	C1045.130737,692.192627 1045.344116,700.362976 1044.375854,708.129028 
	C1043.282349,716.901306 1037.282471,720.816284 1028.063721,720.951538 
	C1018.346069,721.094177 1013.038574,717.350098 1010.733582,708.605652 
	C1010.271484,706.852844 1010.135376,705.014038 1009.810669,702.747253 
z"/>
<path fill="#2C2F34" opacity="1.000000" stroke="none" 
	d="
M961.892212,814.910339 
	C964.384888,799.935120 976.531677,797.663818 986.717041,800.302612 
	C994.064697,802.206177 998.221558,809.968323 997.474548,819.610779 
	C985.602600,819.610779 973.708374,819.610779 961.346252,819.610779 
	C961.517578,818.098999 961.675598,816.704468 961.892212,814.910339 
z"/>
</svg>